<?xml version="1.0" encoding="UTF-8"?>
<svg width="1024" height="1024" viewBox="274 223 472 578" xmlns="http://www.w3.org/2000/svg">
  <path id="18" d="M 0,1024 C 0,682.667 0,341.333 0,0 C 341.333,0 682.667,0 1024,0 C 1024,341.333 1024,682.667 1024,1024 C 682.667,1024 341.333,1024 0,1024 ZM 275.914,448.308 C 274.257,454.100 274.138,463.847 274.071,599.303 C 274.007,729.374 274.165,744.838 275.621,751.303 C 280.598,773.397 294.640,789.121 317,797.642 C 319.500,798.595 322,799.547 324.500,800.500 C 385.475,800.588 446.449,800.675 507.424,800.763 C 711.150,801.056 695.251,801.584 710.500,794.023 C 725.479,786.596 737.191,773.033 742.718,756.714 C 743.645,753.976 744.573,751.238 745.500,748.500 C 745.500,699.500 745.500,650.500 745.500,601.500 C 745.500,552.500 745.500,503.500 745.500,454.500 C 744.754,452.127 744.007,449.753 743.261,447.380 C 739.609,435.770 734.392,429.064 721.605,419.549 C 715.497,415.004 675.850,385.487 633.500,353.954 C 591.150,322.421 555.271,295.920 553.769,295.061 C 550.403,293.137 547.648,294.467 547.194,298.238 C 546.957,300.205 547.855,301.560 551.194,304.273 C 555.192,307.521 627.454,361.362 694.123,410.766 C 723.670,432.662 728.952,437.345 732.029,444.378 C 735.895,453.214 738.325,452.435 705.108,453 C 679.063,453.443 675.596,453.690 674.662,455.172 C 673.913,456.361 673.948,457.590 674.783,459.422 C 675.174,460.281 675.566,461.141 675.957,462 C 685.964,462 695.972,462 705.979,462 C 715.986,462 725.993,462 736,462 C 735.988,464.917 735.976,467.833 735.964,470.750 C 735.952,473.667 735.940,476.583 735.928,479.500 C 723.190,488.741 710.452,497.983 697.714,507.224 C 650.795,541.263 586,588.657 556.372,610.606 C 544.202,619.622 531.827,628.101 528.872,629.448 C 517.564,634.605 502.116,634.799 491.093,629.923 C 485.838,627.599 489.128,629.954 402.500,566.489 C 365.650,539.492 323.800,508.864 309.500,498.427 C 300.833,492.102 292.167,485.775 283.500,479.450 C 283.500,476.625 283.500,473.800 283.500,470.975 C 283.500,468.150 283.500,465.325 283.500,462.500 C 293.305,462.412 303.111,462.323 312.916,462.235 C 332.581,462.058 342.774,461.602 343.666,460.862 C 345.325,459.485 345.400,455.800 343.800,454.200 C 342.922,453.322 334.867,453 313.800,453 C 281.975,453 283.675,453.414 286.608,446.395 C 290.522,437.027 293.537,434.290 329.388,407.554 C 376.262,372.598 452.365,316.008 463.250,308.014 C 470.583,302.629 472,301.141 472,298.829 C 472,295.908 468.949,293.421 466.513,294.356 C 463.523,295.503 293.389,422.349 288.460,427.105 C 283.066,432.311 278.080,440.737 275.914,448.308 ZM 366.388,456.286 C 365.481,459.057 365.124,463.754 365.349,470 C 365.741,480.905 368.618,489.131 375.676,499.524 C 384.478,512.486 402.083,527.170 414.696,532.071 C 422.515,535.109 433.666,535.234 440,532.355 C 452.180,526.817 456.449,515.026 451.426,500.789 C 450.701,498.734 450.469,496.828 450.911,496.555 C 451.353,496.282 459.151,498.540 468.238,501.575 C 473.745,503.414 479.252,505.254 484.759,507.093 C 484.963,508.369 485.167,509.645 485.371,510.921 C 486.985,521.011 498.134,530.254 508.863,530.395 C 522.115,530.569 531.509,522.484 535.493,507.475 C 535.643,506.911 540.880,504.920 547.132,503.050 C 553.384,501.180 559.077,499.450 559.781,499.206 C 560.747,498.871 560.906,499.737 560.428,502.726 C 558.815,512.815 564.412,524.604 573.979,531.266 C 586.398,539.914 604.781,541.573 618.259,535.262 C 626.621,531.346 634.790,523.765 638.772,516.223 C 642.537,509.094 646.988,495.160 650.503,479.500 C 655.377,457.783 652.907,444.056 642.149,433.082 C 634.780,425.565 627.838,422.770 616.500,422.757 C 606.394,422.745 597.386,425.525 589.708,431.023 C 579.441,438.375 575.182,447.215 574.301,463 C 573.799,471.997 573.534,472.910 569.300,480.233 C 567.810,482.811 566.320,485.388 564.830,487.966 C 562.442,488.680 560.053,489.393 557.665,490.107 C 533.508,497.324 534.576,497.092 533.500,495.340 C 529.731,489.199 525.803,485.241 520.982,482.725 C 519.155,481.771 517.327,480.818 515.500,479.864 C 515.333,474.714 515.167,469.564 515,464.414 C 514.725,455.917 514.650,448.522 514.833,447.982 C 515.305,446.591 519.059,446.759 528.922,448.612 C 544.736,451.584 555.337,448.789 563.936,439.380 C 570.208,432.517 572.488,426.134 572.467,415.500 C 572.453,408.670 572.001,406.543 569.373,400.953 C 563.321,388.080 557.480,383.651 532.500,372.997 C 511.317,363.962 504.201,361.442 495.704,359.962 C 477.781,356.841 460.222,365.822 452.618,382 C 450.036,387.494 449.504,389.970 449.182,398 C 448.723,409.456 450.419,416.997 456.043,428.500 C 462.758,442.236 470.238,450.327 479.316,453.674 C 484.386,455.543 493.324,455.237 499,453 C 501.791,451.900 504.282,451 504.537,451 C 504.792,451 505,457.504 505,465.453 C 505,470.271 505,475.088 505,479.906 C 503.417,480.606 501.833,481.307 500.250,482.007 C 494.517,484.542 490.477,488.216 487.888,493.250 C 486.827,495.312 485.651,497 485.273,497 C 484.895,497 475.409,494.046 464.193,490.437 C 457.396,488.249 450.599,486.063 443.801,483.875 C 444.014,482.742 444.226,481.607 444.439,480.474 C 444.790,478.604 446.181,474.662 447.531,471.714 C 458.829,447.036 443.700,428 412.789,428 C 388.715,428 372.394,437.950 366.388,456.286 ZM 398.882,402.405 C 396.747,405.653 395,408.945 395,409.721 C 395,412.545 397.103,415 399.520,415 C 401.442,415 402.835,413.627 405.992,408.629 C 410.289,401.825 417.834,394.151 422.593,391.742 C 424.192,390.933 427.863,389.499 430.751,388.555 C 434.764,387.244 436.147,386.265 436.613,384.406 C 437.959,379.043 432.797,377.566 424.167,380.845 C 414.582,384.487 405.661,392.093 398.882,402.405 ZM 434.200,548.200 C 433.540,548.860 433,550.595 433,552.055 C 433,554.155 434.202,555.550 438.750,558.726 C 445.211,563.239 454.227,568 456.312,568 C 457.070,568 458.475,567.133 459.435,566.072 C 462.155,563.066 460.545,560.308 454.175,557.062 C 451.054,555.472 446.251,552.557 443.503,550.585 C 438.206,546.785 436.144,546.256 434.200,548.200 ZM 488.565,244.220 C 478.354,255.891 470,266.209 470,267.149 C 470,270.644 474.747,273.220 477.530,271.235 C 478.096,270.831 484.104,264.087 490.879,256.250 C 497.654,248.413 503.603,242 504.099,242 C 504.621,242 505,260.872 505,286.800 C 505,333.951 505.005,334 509.500,334 C 513.992,334 514,333.919 514,287.359 C 514,260.698 514.375,242.887 514.944,242.535 C 515.463,242.214 521.823,248.713 529.077,256.976 C 542.328,272.070 544.746,273.854 547.800,270.800 C 550.461,268.139 548.960,264.952 540.714,255.748 C 536.157,250.661 527.805,241.212 522.155,234.750 C 514.443,225.928 511.291,223 509.507,223 C 507.663,223 502.970,227.755 488.565,244.220 ZM 486.200,281.200 C 485.331,282.069 485,289.239 485,307.177 C 485,315.436 485,323.695 485,331.954 C 485.811,332.485 486.622,333.017 487.433,333.548 C 489.326,334.788 490.325,334.897 491.933,334.036 C 493.939,332.963 494,332.180 494,307.665 C 494,281.132 493.816,280 489.500,280 C 488.345,280 486.860,280.540 486.200,281.200 ZM 513.200,538.200 C 512.540,538.860 512.001,540.097 512.001,540.950 C 512.002,543.461 517.581,554.275 520.376,557.182 C 535.106,572.505 556.763,572.701 577.750,557.699 C 582.596,554.235 583.596,549.925 580,548 C 577.753,546.797 577.059,547.076 569.273,552.316 C 550.945,564.650 528.757,560.262 522.299,543.026 C 521.366,540.536 520.129,538.169 519.551,537.765 C 517.931,536.633 514.534,536.866 513.200,538.200 ZM 527.433,280.452 C 526.622,280.983 525.811,281.515 525,282.046 C 525,290.305 525,298.564 525,306.823 C 525,333.495 525.097,334 530.225,334 C 534.883,334 535.268,331.346 534.473,304.722 C 533.812,282.571 533.630,280.873 531.815,279.901 C 530.352,279.118 529.259,279.255 527.433,280.452 ZM 583.571,376.571 C 581.683,378.459 581.529,381.528 583.250,382.962 C 583.938,383.535 587.875,386.372 592,389.267 C 596.951,392.742 601.283,396.904 604.749,401.515 C 608.927,407.074 610.538,408.500 612.640,408.500 C 619.895,408.500 617.216,400.603 606.208,389.540 C 599.542,382.841 588.890,375 586.457,375 C 585.734,375 584.435,375.707 583.571,376.571 Z" fill="none" stroke="none" />
  <path id="21" d="M 275.914,448.308 C 278.080,440.737 283.066,432.311 288.460,427.105 C 293.389,422.349 463.523,295.503 466.513,294.356 C 468.949,293.421 472,295.908 472,298.829 C 472,301.141 470.583,302.629 463.250,308.014 C 452.365,316.008 376.262,372.598 329.388,407.554 C 293.537,434.290 290.522,437.027 286.608,446.395 C 283.675,453.414 281.975,453 313.800,453 C 334.867,453 342.922,453.322 343.800,454.200 C 345.400,455.800 345.325,459.485 343.666,460.862 C 342.774,461.602 332.581,462.058 312.916,462.235 C 303.111,462.323 293.305,462.412 283.500,462.500 C 283.500,465.325 283.500,468.150 283.500,470.975 C 283.500,473.800 283.500,476.625 283.500,479.450 C 292.167,485.775 300.833,492.102 309.500,498.427 C 323.800,508.864 365.650,539.492 402.500,566.489 C 489.128,629.954 485.838,627.599 491.093,629.923 C 502.116,634.799 517.564,634.605 528.872,629.448 C 531.827,628.101 544.202,619.622 556.372,610.606 C 586,588.657 650.795,541.263 697.714,507.224 C 710.452,497.983 723.190,488.741 735.928,479.500 C 735.940,476.583 735.952,473.667 735.964,470.750 C 735.976,467.833 735.988,464.917 736,462 C 725.993,462 715.986,462 705.979,462 C 695.972,462 685.964,462 675.957,462 C 675.566,461.141 675.174,460.281 674.783,459.422 C 673.948,457.590 673.913,456.361 674.662,455.172 C 675.596,453.690 679.063,453.443 705.108,453 C 738.325,452.435 735.895,453.214 732.029,444.378 C 728.952,437.345 723.670,432.662 694.123,410.766 C 627.454,361.362 555.192,307.521 551.194,304.273 C 547.855,301.560 546.957,300.205 547.194,298.238 C 547.648,294.467 550.403,293.137 553.769,295.061 C 555.271,295.920 591.150,322.421 633.500,353.954 C 675.850,385.487 715.497,415.004 721.605,419.549 C 734.392,429.064 739.609,435.770 743.261,447.380 C 744.007,449.753 744.754,452.127 745.500,454.500 C 745.500,503.500 745.500,552.500 745.500,601.500 C 745.500,650.500 745.500,699.500 745.500,748.500 C 744.573,751.238 743.645,753.976 742.718,756.714 C 737.191,773.033 725.479,786.596 710.500,794.023 C 695.251,801.584 711.150,801.056 507.424,800.763 C 446.449,800.675 385.475,800.588 324.500,800.500 C 322,799.547 319.500,798.595 317,797.642 C 294.640,789.121 280.598,773.397 275.621,751.303 C 274.165,744.838 274.007,729.374 274.071,599.303 C 274.138,463.847 274.257,454.100 275.914,448.308 ZM 387.761,567.294 C 354.617,543.018 317.905,516.140 306.178,507.564 C 294.451,498.988 284.438,492.230 283.928,492.545 C 282.771,493.260 282.657,742.670 283.814,743.385 C 284.619,743.883 447.235,613.796 447.754,612.239 C 447.902,611.795 420.905,591.570 387.761,567.294 ZM 724.750,748.230 C 720.213,744.452 686.575,717.338 650,687.976 C 613.425,658.614 578.849,630.855 573.165,626.289 C 567.389,621.649 562.316,618.277 561.665,618.645 C 561.024,619.007 555.740,622.825 549.921,627.129 C 537.874,636.040 531.105,639.447 521.335,641.517 C 512.691,643.348 506.309,643.348 497.665,641.517 C 487.942,639.457 482.119,636.463 468.721,626.638 C 462.243,621.887 456.726,618 456.462,618 C 456.198,618 445.523,626.464 432.741,636.810 C 419.959,647.156 383.175,676.819 351,702.729 C 318.825,728.639 291.011,751.112 289.192,752.669 C 288.089,753.613 286.988,754.556 285.885,755.500 C 286.960,757.667 288.036,759.833 289.111,762 C 293.413,770.668 304.246,781.400 313.053,785.718 C 326.597,792.359 314.336,791.969 510.040,791.985 C 706.961,792.001 692.483,792.495 706.915,785.270 C 715.959,780.742 725.201,771.852 729.765,763.289 C 731.544,759.951 733,756.743 733,756.160 C 733,755.577 729.287,752.008 724.750,748.230 ZM 732.754,493.219 C 730.964,494.573 720.275,502.357 709,510.517 C 697.725,518.677 668.475,540.028 644,557.964 C 619.525,575.900 593.080,595.259 585.233,600.985 C 577.386,606.711 571.086,611.705 571.233,612.081 C 571.503,612.773 578.818,618.694 657,681.507 C 680.925,700.729 708.375,722.855 718,730.676 C 723.833,735.416 729.667,740.157 735.500,744.897 C 735.585,702.540 735.669,660.184 735.754,617.827 C 735.839,575.470 735.923,533.114 736.008,490.757 C 734.923,491.578 733.839,492.398 732.754,493.219 Z" fill="#020202" stroke="none" />
  <path id="18" d="M 724.750,748.230 C 729.287,752.008 733,755.577 733,756.160 C 733,756.743 731.544,759.951 729.765,763.289 C 725.201,771.852 715.959,780.742 706.915,785.270 C 692.483,792.495 706.961,792.001 510.040,791.985 C 314.336,791.969 326.597,792.359 313.053,785.718 C 304.246,781.400 293.413,770.668 289.111,762 C 288.036,759.833 286.960,757.667 285.885,755.500 C 286.988,754.556 288.089,753.613 289.192,752.669 C 291.011,751.112 318.825,728.639 351,702.729 C 383.175,676.819 419.959,647.156 432.741,636.810 C 445.523,626.464 456.198,618 456.462,618 C 456.726,618 462.243,621.887 468.721,626.638 C 482.119,636.463 487.942,639.457 497.665,641.517 C 506.309,643.348 512.691,643.348 521.335,641.517 C 531.105,639.447 537.874,636.040 549.921,627.129 C 555.740,622.825 561.024,619.007 561.665,618.645 C 562.316,618.277 567.389,621.649 573.165,626.289 C 578.849,630.855 613.425,658.614 650,687.976 C 686.575,717.338 720.213,744.452 724.750,748.230 ZM 398.080,744.750 C 396.734,747.061 396.747,747.192 398.557,749.777 C 399.076,750.518 399.594,751.259 400.113,752 C 429.527,752 458.943,752 488.357,752 C 555.657,752 576.885,751.715 577.800,750.800 C 579.343,749.258 579.343,745.742 577.800,744.200 C 576.885,743.285 555.545,743 487.850,743 C 404.381,743 399.039,743.104 398.080,744.750 ZM 405.915,704.703 C 399.586,710.749 398,712.847 398,715.165 C 398,717.254 398.629,718.302 400.250,718.914 C 403.273,720.055 405.237,718.896 413.080,711.340 C 421.997,702.749 423.845,702.752 432.847,711.368 C 440.885,719.061 442.573,720 448.369,720 C 454.933,720 457.477,718.693 464.948,711.480 C 474.009,702.732 475.814,702.722 484.847,711.368 C 492.885,719.061 494.573,720 500.369,720 C 506.933,720 509.477,718.693 516.948,711.480 C 525.674,703.056 528.041,702.856 534.960,709.959 C 542.560,717.761 546.449,720 552.390,719.996 C 558.565,719.991 561.029,718.590 570.750,709.553 C 578.017,702.797 579.457,699.857 576.800,697.200 C 574.122,694.522 570.969,695.984 563.226,703.493 C 553.173,713.243 552.292,713.267 542.578,704.073 C 534.271,696.211 529.828,694.355 522.996,695.890 C 518.432,696.915 516.931,697.995 509.315,705.732 C 501.978,713.186 500.023,713.013 490.578,704.073 C 482.271,696.211 477.828,694.355 470.996,695.890 C 466.432,696.915 464.931,697.995 457.315,705.732 C 449.980,713.184 448.022,713.013 438.592,704.087 C 432.020,697.867 426.957,695.011 422.500,695.011 C 417.944,695.011 413.092,697.846 405.915,704.703 ZM 604.664,699.903 C 597.956,706.851 596.556,710.156 599.200,712.800 C 601.483,715.083 604.458,713.979 609.536,708.964 C 611.236,707.285 612.936,705.607 614.636,703.928 C 616.182,705.607 617.729,707.285 619.275,708.964 C 623.986,714.079 627.310,715.290 629.800,712.800 C 632.280,710.320 630.896,707.442 623.775,700.273 C 614.392,690.828 613.443,690.810 604.664,699.903 ZM 599.487,740.011 C 596.433,742.546 597.786,745.972 604.643,753.075 C 608.297,756.859 612.104,760.215 613.105,760.533 C 615.838,761.400 618.108,759.774 624.971,752.033 C 630.123,746.221 631.106,744.557 630.592,742.510 C 630.201,740.952 629.014,739.791 627.398,739.385 C 625.239,738.843 623.994,739.563 619.627,743.875 C 617.894,745.587 616.160,747.298 614.427,749.010 C 612.939,747.494 611.451,745.978 609.963,744.462 C 605.092,739.498 601.793,738.097 599.487,740.011 Z" fill="#FFFFFF" stroke="none" />
  <path id="21" d="M 366.388,456.286 C 372.394,437.950 388.715,428 412.789,428 C 443.700,428 458.829,447.036 447.531,471.714 C 446.181,474.662 444.790,478.604 444.439,480.474 C 444.226,481.607 444.014,482.742 443.801,483.875 C 450.599,486.063 457.396,488.249 464.193,490.437 C 475.409,494.046 484.895,497 485.273,497 C 485.651,497 486.827,495.312 487.888,493.250 C 490.477,488.216 494.517,484.542 500.250,482.007 C 501.833,481.307 503.417,480.606 505,479.906 C 505,475.088 505,470.271 505,465.453 C 505,457.504 504.792,451 504.537,451 C 504.282,451 501.791,451.900 499,453 C 493.324,455.237 484.386,455.543 479.316,453.674 C 470.238,450.327 462.758,442.236 456.043,428.500 C 450.419,416.997 448.723,409.456 449.182,398 C 449.504,389.970 450.036,387.494 452.618,382 C 460.222,365.822 477.781,356.841 495.704,359.962 C 504.201,361.442 511.317,363.962 532.500,372.997 C 557.480,383.651 563.321,388.080 569.373,400.953 C 572.001,406.543 572.453,408.670 572.467,415.500 C 572.488,426.134 570.208,432.517 563.936,439.380 C 555.337,448.789 544.736,451.584 528.922,448.612 C 519.059,446.759 515.305,446.591 514.833,447.982 C 514.650,448.522 514.725,455.917 515,464.414 C 515.167,469.564 515.333,474.714 515.500,479.864 C 517.327,480.818 519.155,481.771 520.982,482.725 C 525.803,485.241 529.731,489.199 533.500,495.340 C 534.576,497.092 533.508,497.324 557.665,490.107 C 560.053,489.393 562.442,488.680 564.830,487.966 C 566.320,485.388 567.810,482.811 569.300,480.233 C 573.534,472.910 573.799,471.997 574.301,463 C 575.182,447.215 579.441,438.375 589.708,431.023 C 597.386,425.525 606.394,422.745 616.500,422.757 C 627.838,422.770 634.780,425.565 642.149,433.082 C 652.907,444.056 655.377,457.783 650.503,479.500 C 646.988,495.160 642.537,509.094 638.772,516.223 C 634.790,523.765 626.621,531.346 618.259,535.262 C 604.781,541.573 586.398,539.914 573.979,531.266 C 564.412,524.604 558.815,512.815 560.428,502.726 C 560.906,499.737 560.747,498.871 559.781,499.206 C 559.077,499.450 553.384,501.180 547.132,503.050 C 540.880,504.920 535.643,506.911 535.493,507.475 C 531.509,522.484 522.115,530.569 508.863,530.395 C 498.134,530.254 486.985,521.011 485.371,510.921 C 485.167,509.645 484.963,508.369 484.759,507.093 C 479.252,505.254 473.745,503.414 468.238,501.575 C 459.151,498.540 451.353,496.282 450.911,496.555 C 450.469,496.828 450.701,498.734 451.426,500.789 C 456.449,515.026 452.180,526.817 440,532.355 C 433.666,535.234 422.515,535.109 414.696,532.071 C 402.083,527.170 384.478,512.486 375.676,499.524 C 368.618,489.131 365.741,480.905 365.349,470 C 365.124,463.754 365.481,459.057 366.388,456.286 ZM 443.928,506.765 C 443.438,504.711 441.229,499.433 439.019,495.037 C 433.859,484.773 433.799,481.029 438.604,468.734 C 441.505,461.311 442.117,458.569 441.743,454.681 C 440.690,443.721 429.775,437 413.029,437 C 393.900,437 379.229,445.524 375.341,458.898 C 371.206,473.121 376.721,488.299 391.769,504.112 C 405.848,518.907 416.501,525.003 428.261,524.996 C 440.154,524.989 446.510,517.593 443.928,506.765 ZM 562.918,410.045 C 561.682,403.816 557.299,397.188 551.534,392.831 C 546.747,389.213 513.903,374.721 501.500,370.754 C 493.023,368.043 481.389,368.683 474.500,372.240 C 457.268,381.137 453.393,401.475 464.523,424.614 C 471.291,438.685 479.483,446 488.474,446 C 490.852,446 495.674,444.454 501.125,441.943 C 505.969,439.711 511.508,437.630 513.434,437.317 C 515.417,436.995 521.934,437.740 528.461,439.035 C 538.713,441.069 540.605,441.183 545.595,440.066 C 558.056,437.277 565.695,424.039 562.918,410.045 ZM 524.929,500.315 C 522.698,492.856 513.731,487.919 506.131,489.965 C 495.790,492.750 491.287,502.764 496,512.500 C 501.225,523.294 517.146,523.819 523.174,513.395 C 525.390,509.563 526.104,504.244 524.929,500.315 ZM 642.912,452.734 C 639.597,438.664 629.336,431.309 614.267,432.201 C 605.136,432.742 599.071,435.134 593.055,440.569 C 586.679,446.329 584.902,450.698 583.909,463.056 C 582.925,475.296 582.510,476.650 577.120,485.213 C 571.004,494.929 569.716,498.960 570.168,506.966 C 570.704,516.453 574.001,521.181 583.441,526 C 589.791,529.241 590.970,529.500 599.399,529.500 C 607.321,529.500 609.309,529.127 614.747,526.615 C 626.203,521.324 631.722,513.122 637.525,492.770 C 643.584,471.519 644.949,461.378 642.912,452.734 Z" fill="#020202" stroke="none" />
  <path id="18" d="M 732.754,493.219 C 733.839,492.398 734.923,491.578 736.008,490.757 C 735.923,533.114 735.839,575.470 735.754,617.827 C 735.669,660.184 735.585,702.540 735.500,744.897 C 729.667,740.157 723.833,735.416 718,730.676 C 708.375,722.855 680.925,700.729 657,681.507 C 578.818,618.694 571.503,612.773 571.233,612.081 C 571.086,611.705 577.386,606.711 585.233,600.985 C 593.080,595.259 619.525,575.900 644,557.964 C 668.475,540.028 697.725,518.677 709,510.517 C 720.275,502.357 730.964,494.573 732.754,493.219 Z" fill="#FFFFFF" stroke="none" />
  <path id="18" d="M 387.761,567.294 C 420.905,591.570 447.902,611.795 447.754,612.239 C 447.235,613.796 284.619,743.883 283.814,743.385 C 282.657,742.670 282.771,493.260 283.928,492.545 C 284.438,492.230 294.451,498.988 306.178,507.564 C 317.905,516.140 354.617,543.018 387.761,567.294 Z" fill="#FFFFFF" stroke="none" />
  <path id="18" d="M 562.918,410.045 C 565.695,424.039 558.056,437.277 545.595,440.066 C 540.605,441.183 538.713,441.069 528.461,439.035 C 521.934,437.740 515.417,436.995 513.434,437.317 C 511.508,437.630 505.969,439.711 501.125,441.943 C 495.674,444.454 490.852,446 488.474,446 C 479.483,446 471.291,438.685 464.523,424.614 C 453.393,401.475 457.268,381.137 474.500,372.240 C 481.389,368.683 493.023,368.043 501.500,370.754 C 513.903,374.721 546.747,389.213 551.534,392.831 C 557.299,397.188 561.682,403.816 562.918,410.045 Z" fill="#FFFFFF" stroke="none" />
  <path id="18" d="M 642.912,452.734 C 644.949,461.378 643.584,471.519 637.525,492.770 C 631.722,513.122 626.203,521.324 614.747,526.615 C 609.309,529.127 607.321,529.500 599.399,529.500 C 590.970,529.500 589.791,529.241 583.441,526 C 574.001,521.181 570.704,516.453 570.168,506.966 C 569.716,498.960 571.004,494.929 577.120,485.213 C 582.510,476.650 582.925,475.296 583.909,463.056 C 584.902,450.698 586.679,446.329 593.055,440.569 C 599.071,435.134 605.136,432.742 614.267,432.201 C 629.336,431.309 639.597,438.664 642.912,452.734 Z" fill="#FFFFFF" stroke="none" />
  <path id="18" d="M 443.928,506.765 C 446.510,517.593 440.154,524.989 428.261,524.996 C 416.501,525.003 405.848,518.907 391.769,504.112 C 376.721,488.299 371.206,473.121 375.341,458.898 C 379.229,445.524 393.900,437 413.029,437 C 429.775,437 440.690,443.721 441.743,454.681 C 442.117,458.569 441.505,461.311 438.604,468.734 C 433.799,481.029 433.859,484.773 439.019,495.037 C 441.229,499.433 443.438,504.711 443.928,506.765 Z" fill="#FFFFFF" stroke="none" />
  <path id="21" d="M 405.915,704.703 C 413.092,697.846 417.944,695.011 422.500,695.011 C 426.957,695.011 432.020,697.867 438.592,704.087 C 448.022,713.013 449.980,713.184 457.315,705.732 C 464.931,697.995 466.432,696.915 470.996,695.890 C 477.828,694.355 482.271,696.211 490.578,704.073 C 500.023,713.013 501.978,713.186 509.315,705.732 C 516.931,697.995 518.432,696.915 522.996,695.890 C 529.828,694.355 534.271,696.211 542.578,704.073 C 552.292,713.267 553.173,713.243 563.226,703.493 C 570.969,695.984 574.122,694.522 576.800,697.200 C 579.457,699.857 578.017,702.797 570.750,709.553 C 561.029,718.590 558.565,719.991 552.390,719.996 C 546.449,720 542.560,717.761 534.960,709.959 C 528.041,702.856 525.674,703.056 516.948,711.480 C 509.477,718.693 506.933,720 500.369,720 C 494.573,720 492.885,719.061 484.847,711.368 C 475.814,702.722 474.009,702.732 464.948,711.480 C 457.477,718.693 454.933,720 448.369,720 C 442.573,720 440.885,719.061 432.847,711.368 C 423.845,702.752 421.997,702.749 413.080,711.340 C 405.237,718.896 403.273,720.055 400.250,718.914 C 398.629,718.302 398,717.254 398,715.165 C 398,712.847 399.586,710.749 405.915,704.703 Z" fill="#020202" stroke="none" />
  <path id="21" d="M 488.565,244.220 C 502.970,227.755 507.663,223 509.507,223 C 511.291,223 514.443,225.928 522.155,234.750 C 527.805,241.212 536.157,250.661 540.714,255.748 C 548.960,264.952 550.461,268.139 547.800,270.800 C 544.746,273.854 542.328,272.070 529.077,256.976 C 521.823,248.713 515.463,242.214 514.944,242.535 C 514.375,242.887 514,260.698 514,287.359 C 514,333.919 513.992,334 509.500,334 C 505.005,334 505,333.951 505,286.800 C 505,260.872 504.621,242 504.099,242 C 503.603,242 497.654,248.413 490.879,256.250 C 484.104,264.087 478.096,270.831 477.530,271.235 C 474.747,273.220 470,270.644 470,267.149 C 470,266.209 478.354,255.891 488.565,244.220 Z" fill="#020202" stroke="none" />
  <path id="21" d="M 398.080,744.750 C 399.039,743.104 404.381,743 487.850,743 C 555.545,743 576.885,743.285 577.800,744.200 C 579.343,745.742 579.343,749.258 577.800,750.800 C 576.885,751.715 555.657,752 488.357,752 C 458.943,752 429.527,752 400.113,752 C 399.594,751.259 399.076,750.518 398.557,749.777 C 396.747,747.192 396.734,747.061 398.080,744.750 Z" fill="#020202" stroke="none" />
  <path id="21" d="M 513.200,538.200 C 514.534,536.866 517.931,536.633 519.551,537.765 C 520.129,538.169 521.366,540.536 522.299,543.026 C 528.757,560.262 550.945,564.650 569.273,552.316 C 577.059,547.076 577.753,546.797 580,548 C 583.596,549.925 582.596,554.235 577.750,557.699 C 556.763,572.701 535.106,572.505 520.376,557.182 C 517.581,554.275 512.002,543.461 512.001,540.950 C 512.001,540.097 512.540,538.860 513.200,538.200 Z" fill="#020202" stroke="none" />
  <path id="18" d="M 524.929,500.315 C 526.104,504.244 525.390,509.563 523.174,513.395 C 517.146,523.819 501.225,523.294 496,512.500 C 491.287,502.764 495.790,492.750 506.131,489.965 C 513.731,487.919 522.698,492.856 524.929,500.315 Z" fill="#FFFFFF" stroke="none" />
  <path id="21" d="M 398.882,402.405 C 405.661,392.093 414.582,384.487 424.167,380.845 C 432.797,377.566 437.959,379.043 436.613,384.406 C 436.147,386.265 434.764,387.244 430.751,388.555 C 427.863,389.499 424.192,390.933 422.593,391.742 C 417.834,394.151 410.289,401.825 405.992,408.629 C 402.835,413.627 401.442,415 399.520,415 C 397.103,415 395,412.545 395,409.721 C 395,408.945 396.747,405.653 398.882,402.405 Z" fill="#020202" stroke="none" />
  <path id="21" d="M 486.200,281.200 C 486.860,280.540 488.345,280 489.500,280 C 493.816,280 494,281.132 494,307.665 C 494,332.180 493.939,332.963 491.933,334.036 C 490.325,334.897 489.326,334.788 487.433,333.548 C 486.622,333.017 485.811,332.485 485,331.954 C 485,323.695 485,315.436 485,307.177 C 485,289.239 485.331,282.069 486.200,281.200 Z" fill="#020202" stroke="none" />
  <path id="21" d="M 527.433,280.452 C 529.259,279.255 530.352,279.118 531.815,279.901 C 533.630,280.873 533.812,282.571 534.473,304.722 C 535.268,331.346 534.883,334 530.225,334 C 525.097,334 525,333.495 525,306.823 C 525,298.564 525,290.305 525,282.046 C 525.811,281.515 526.622,280.983 527.433,280.452 Z" fill="#020202" stroke="none" />
  <path id="21" d="M 599.487,740.011 C 601.793,738.097 605.092,739.498 609.963,744.462 C 611.451,745.978 612.939,747.494 614.427,749.010 C 616.160,747.298 617.894,745.587 619.627,743.875 C 623.994,739.563 625.239,738.843 627.398,739.385 C 629.014,739.791 630.201,740.952 630.592,742.510 C 631.106,744.557 630.123,746.221 624.971,752.033 C 618.108,759.774 615.838,761.400 613.105,760.533 C 612.104,760.215 608.297,756.859 604.643,753.075 C 597.786,745.972 596.433,742.546 599.487,740.011 Z" fill="#020202" stroke="none" />
  <path id="21" d="M 583.571,376.571 C 584.435,375.707 585.734,375 586.457,375 C 588.890,375 599.542,382.841 606.208,389.540 C 617.216,400.603 619.895,408.500 612.640,408.500 C 610.538,408.500 608.927,407.074 604.749,401.515 C 601.283,396.904 596.951,392.742 592,389.267 C 587.875,386.372 583.938,383.535 583.250,382.962 C 581.529,381.528 581.683,378.459 583.571,376.571 Z" fill="#020202" stroke="none" />
  <path id="21" d="M 434.200,548.200 C 436.144,546.256 438.206,546.785 443.503,550.585 C 446.251,552.557 451.054,555.472 454.175,557.062 C 460.545,560.308 462.155,563.066 459.435,566.072 C 458.475,567.133 457.070,568 456.312,568 C 454.227,568 445.211,563.239 438.750,558.726 C 434.202,555.550 433,554.155 433,552.055 C 433,550.595 433.540,548.860 434.200,548.200 Z" fill="#020202" stroke="none" />
  <path id="21" d="M 604.664,699.903 C 613.443,690.810 614.392,690.828 623.775,700.273 C 630.896,707.442 632.280,710.320 629.800,712.800 C 627.310,715.290 623.986,714.079 619.275,708.964 C 617.729,707.285 616.182,705.607 614.636,703.928 C 612.936,705.607 611.236,707.285 609.536,708.964 C 604.458,713.979 601.483,715.083 599.200,712.800 C 596.556,710.156 597.956,706.851 604.664,699.903 Z" fill="#020202" stroke="none" />
</svg>
